<svg width="4096" height="4096" xmlns="http://www.w3.org/2000/svg">
  <!-- Ultra High Resolution Gothic Ribbed Vaulted Ceiling - 4K with Intense Dithering -->
  <rect width="4096" height="4096" fill="black"/>
  
  <!-- MAIN STRUCTURAL RIBS -->
  <!-- Central longitudinal spine rib -->
  <rect x="2000" y="0" width="96" height="4096" fill="white"/>
  
  <!-- Major transverse ribs creating bays -->
  <rect x="0" y="400" width="4096" height="48" fill="white"/>
  <rect x="0" y="900" width="4096" height="48" fill="white"/>
  <rect x="0" y="1400" width="4096" height="48" fill="white"/>
  <rect x="0" y="1900" width="4096" height="48" fill="white"/>
  <rect x="0" y="2400" width="4096" height="48" fill="white"/>
  <rect x="0" y="2900" width="4096" height="48" fill="white"/>
  <rect x="0" y="3400" width="4096" height="48" fill="white"/>
  <rect x="0" y="3900" width="4096" height="48" fill="white"/>
  
  <!-- CURVED VAULT RIBS - Creating barrel vault curvature -->
  <!-- Left side curved ribs -->
  <path d="M0,0 Q600,200 1000,400 Q1400,200 2000,400" stroke="white" stroke-width="32" fill="none"/>
  <path d="M0,500 Q600,700 1000,900 Q1400,700 2000,900" stroke="white" stroke-width="32" fill="none"/>
  <path d="M0,1000 Q600,1200 1000,1400 Q1400,1200 2000,1400" stroke="white" stroke-width="32" fill="none"/>
  <path d="M0,1500 Q600,1700 1000,1900 Q1400,1700 2000,1900" stroke="white" stroke-width="32" fill="none"/>
  <path d="M0,2000 Q600,2200 1000,2400 Q1400,2200 2000,2400" stroke="white" stroke-width="32" fill="none"/>
  <path d="M0,2500 Q600,2700 1000,2900 Q1400,2700 2000,2900" stroke="white" stroke-width="32" fill="none"/>
  <path d="M0,3000 Q600,3200 1000,3400 Q1400,3200 2000,3400" stroke="white" stroke-width="32" fill="none"/>
  <path d="M0,3500 Q600,3700 1000,3900 Q1400,3700 2000,3900" stroke="white" stroke-width="32" fill="none"/>
  
  <!-- Right side curved ribs -->
  <path d="M2096,400 Q2600,200 3000,400 Q3400,200 4096,0" stroke="white" stroke-width="32" fill="none"/>
  <path d="M2096,900 Q2600,700 3000,900 Q3400,700 4096,500" stroke="white" stroke-width="32" fill="none"/>
  <path d="M2096,1400 Q2600,1200 3000,1400 Q3400,1200 4096,1000" stroke="white" stroke-width="32" fill="none"/>
  <path d="M2096,1900 Q2600,1700 3000,1900 Q3400,1700 4096,1500" stroke="white" stroke-width="32" fill="none"/>
  <path d="M2096,2400 Q2600,2200 3000,2400 Q3400,2200 4096,2000" stroke="white" stroke-width="32" fill="none"/>
  <path d="M2096,2900 Q2600,2700 3000,2900 Q3400,2700 4096,2500" stroke="white" stroke-width="32" fill="none"/>
  <path d="M2096,3400 Q2600,3200 3000,3400 Q3400,3200 4096,3000" stroke="white" stroke-width="32" fill="none"/>
  <path d="M2096,3900 Q2600,3700 3000,3900 Q3400,3700 4096,3500" stroke="white" stroke-width="32" fill="none"/>
  
  <!-- SECONDARY SUPPORTING RIBS -->
  <!-- Left bay detailed secondary ribs -->
  <path d="M0,200 Q300,300 600,400" stroke="white" stroke-width="16" fill="none"/>
  <path d="M600,400 Q900,300 1200,400" stroke="white" stroke-width="16" fill="none"/>
  <path d="M1200,400 Q1500,300 1800,400" stroke="white" stroke-width="16" fill="none"/>
  
  <path d="M0,700 Q300,800 600,900" stroke="white" stroke-width="16" fill="none"/>
  <path d="M600,900 Q900,800 1200,900" stroke="white" stroke-width="16" fill="none"/>
  <path d="M1200,900 Q1500,800 1800,900" stroke="white" stroke-width="16" fill="none"/>
  
  <!-- Right bay secondary ribs -->
  <path d="M2296,400 Q2600,300 2900,400" stroke="white" stroke-width="16" fill="none"/>
  <path d="M2900,400 Q3200,300 3500,400" stroke="white" stroke-width="16" fill="none"/>
  <path d="M3500,400 Q3800,300 4096,400" stroke="white" stroke-width="16" fill="none"/>
  
  <!-- INTENSE DITHERED VAULT SURFACES -->
  <!-- Bay 1 Left - Ultra detailed stone surface with heavy dithering -->
  <g>
    <path d="M0,0 Q1000,300 2000,400 L2000,900 Q1000,800 0,500 Z" fill="white"/>
    
    <!-- PROPER FLOYD-STEINBERG DITHERING PATTERN -->
    <!-- This creates the characteristic error diffusion pattern -->
    <g>
      <!-- Floyd-Steinberg creates irregular but structured patterns -->
      <!-- Row 1 - Error diffusion creates uneven spacing -->
      <rect x="10" y="10" width="2" height="2" fill="black"/>
      <rect x="18" y="10" width="2" height="2" fill="black"/>
      <rect x="22" y="10" width="2" height="2" fill="black"/>
      <rect x="30" y="10" width="2" height="2" fill="black"/>
      <rect x="38" y="10" width="2" height="2" fill="black"/>
      <rect x="42" y="10" width="2" height="2" fill="black"/>
      <rect x="46" y="10" width="2" height="2" fill="black"/>
      <rect x="54" y="10" width="2" height="2" fill="black"/>
      <rect x="62" y="10" width="2" height="2" fill="black"/>
      <rect x="66" y="10" width="2" height="2" fill="black"/>
      <rect x="74" y="10" width="2" height="2" fill="black"/>
      <rect x="82" y="10" width="2" height="2" fill="black"/>
      <rect x="86" y="10" width="2" height="2" fill="black"/>
      <rect x="90" y="10" width="2" height="2" fill="black"/>
      <rect x="98" y="10" width="2" height="2" fill="black"/>
      <rect x="106" y="10" width="2" height="2" fill="black"/>
      <rect x="110" y="10" width="2" height="2" fill="black"/>
      <rect x="118" y="10" width="2" height="2" fill="black"/>
      
      <!-- Row 2 - Different pattern due to error propagation -->
      <rect x="14" y="14" width="2" height="2" fill="black"/>
      <rect x="16" y="14" width="2" height="2" fill="black"/>
      <rect x="26" y="14" width="2" height="2" fill="black"/>
      <rect x="34" y="14" width="2" height="2" fill="black"/>
      <rect x="36" y="14" width="2" height="2" fill="black"/>
      <rect x="50" y="14" width="2" height="2" fill="black"/>
      <rect x="58" y="14" width="2" height="2" fill="black"/>
      <rect x="70" y="14" width="2" height="2" fill="black"/>
      <rect x="78" y="14" width="2" height="2" fill="black"/>
      <rect x="94" y="14" width="2" height="2" fill="black"/>
      <rect x="102" y="14" width="2" height="2" fill="black"/>
      <rect x="114" y="14" width="2" height="2" fill="black"/>
      <rect x="122" y="14" width="2" height="2" fill="black"/>
      
      <!-- Row 3 - Further error diffusion -->
      <rect x="12" y="18" width="2" height="2" fill="black"/>
      <rect x="20" y="18" width="2" height="2" fill="black"/>
      <rect x="24" y="18" width="2" height="2" fill="black"/>
      <rect x="28" y="18" width="2" height="2" fill="black"/>
      <rect x="40" y="18" width="2" height="2" fill="black"/>
      <rect x="44" y="18" width="2" height="2" fill="black"/>
      <rect x="52" y="18" width="2" height="2" fill="black"/>
      <rect x="56" y="18" width="2" height="2" fill="black"/>
      <rect x="60" y="18" width="2" height="2" fill="black"/>
      <rect x="64" y="18" width="2" height="2" fill="black"/>
      <rect x="72" y="18" width="2" height="2" fill="black"/>
      <rect x="76" y="18" width="2" height="2" fill="black"/>
      <rect x="80" y="18" width="2" height="2" fill="black"/>
      <rect x="84" y="18" width="2" height="2" fill="black"/>
      <rect x="88" y="18" width="2" height="2" fill="black"/>
      <rect x="92" y="18" width="2" height="2" fill="black"/>
      <rect x="96" y="18" width="2" height="2" fill="black"/>
      <rect x="100" y="18" width="2" height="2" fill="black"/>
      <rect x="104" y="18" width="2" height="2" fill="black"/>
      <rect x="108" y="18" width="2" height="2" fill="black"/>
      <rect x="112" y="18" width="2" height="2" fill="black"/>
      <rect x="116" y="18" width="2" height="2" fill="black"/>
      <rect x="120" y="18" width="2" height="2" fill="black"/>
      
      <!-- Row 4 - Pattern becomes more irregular -->
      <rect x="8" y="22" width="2" height="2" fill="black"/>
      <rect x="14" y="22" width="2" height="2" fill="black"/>
      <rect x="18" y="22" width="2" height="2" fill="black"/>
      <rect x="26" y="22" width="2" height="2" fill="black"/>
      <rect x="32" y="22" width="2" height="2" fill="black"/>
      <rect x="38" y="22" width="2" height="2" fill="black"/>
      <rect x="48" y="22" width="2" height="2" fill="black"/>
      <rect x="58" y="22" width="2" height="2" fill="black"/>
      <rect x="68" y="22" width="2" height="2" fill="black"/>
      <rect x="78" y="22" width="2" height="2" fill="black"/>
      <rect x="88" y="22" width="2" height="2" fill="black"/>
      <rect x="98" y="22" width="2" height="2" fill="black"/>
      <rect x="108" y="22" width="2" height="2" fill="black"/>
      <rect x="118" y="22" width="2" height="2" fill="black"/>
      
      <!-- Row 5 - More clustering -->
      <rect x="10" y="26" width="2" height="2" fill="black"/>
      <rect x="12" y="26" width="2" height="2" fill="black"/>
      <rect x="16" y="26" width="2" height="2" fill="black"/>
      <rect x="22" y="26" width="2" height="2" fill="black"/>
      <rect x="24" y="26" width="2" height="2" fill="black"/>
      <rect x="30" y="26" width="2" height="2" fill="black"/>
      <rect x="34" y="26" width="2" height="2" fill="black"/>
      <rect x="36" y="26" width="2" height="2" fill="black"/>
      <rect x="40" y="26" width="2" height="2" fill="black"/>
      <rect x="42" y="26" width="2" height="2" fill="black"/>
      <rect x="46" y="26" width="2" height="2" fill="black"/>
      <rect x="50" y="26" width="2" height="2" fill="black"/>
      <rect x="52" y="26" width="2" height="2" fill="black"/>
      <rect x="54" y="26" width="2" height="2" fill="black"/>
      <rect x="56" y="26" width="2" height="2" fill="black"/>
      <rect x="60" y="26" width="2" height="2" fill="black"/>
      <rect x="62" y="26" width="2" height="2" fill="black"/>
      <rect x="64" y="26" width="2" height="2" fill="black"/>
      <rect x="66" y="26" width="2" height="2" fill="black"/>
      <rect x="70" y="26" width="2" height="2" fill="black"/>
      <rect x="72" y="26" width="2" height="2" fill="black"/>
      <rect x="74" y="26" width="2" height="2" fill="black"/>
      <rect x="76" y="26" width="2" height="2" fill="black"/>
      <rect x="80" y="26" width="2" height="2" fill="black"/>
      <rect x="82" y="26" width="2" height="2" fill="black"/>
      <rect x="84" y="26" width="2" height="2" fill="black"/>
      <rect x="86" y="26" width="2" height="2" fill="black"/>
      <rect x="90" y="26" width="2" height="2" fill="black"/>
      <rect x="92" y="26" width="2" height="2" fill="black"/>
      <rect x="94" y="26" width="2" height="2" fill="black"/>
      <rect x="96" y="26" width="2" height="2" fill="black"/>
      <rect x="100" y="26" width="2" height="2" fill="black"/>
      <rect x="102" y="26" width="2" height="2" fill="black"/>
      <rect x="104" y="26" width="2" height="2" fill="black"/>
      <rect x="106" y="26" width="2" height="2" fill="black"/>
      <rect x="110" y="26" width="2" height="2" fill="black"/>
      <rect x="112" y="26" width="2" height="2" fill="black"/>
      <rect x="114" y="26" width="2" height="2" fill="black"/>
      <rect x="116" y="26" width="2" height="2" fill="black"/>
      <rect x="120" y="26" width="2" height="2" fill="black"/>
      <rect x="122" y="26" width="2" height="2" fill="black"/>
    </g>
    
    <!-- BAYER MATRIX DITHERING PATTERN -->
    <!-- Creates ordered geometric patterns -->
    <g>
      <!-- 4x4 Bayer matrix pattern -->
      <rect x="200" y="40" width="2" height="2" fill="black"/>
      <rect x="208" y="40" width="2" height="2" fill="black"/>
      <rect x="204" y="44" width="2" height="2" fill="black"/>
      <rect x="212" y="44" width="2" height="2" fill="black"/>
      
      <rect x="216" y="40" width="2" height="2" fill="black"/>
      <rect x="224" y="40" width="2" height="2" fill="black"/>
      <rect x="220" y="44" width="2" height="2" fill="black"/>
      <rect x="228" y="44" width="2" height="2" fill="black"/>
      
      <rect x="200" y="48" width="2" height="2" fill="black"/>
      <rect x="208" y="48" width="2" height="2" fill="black"/>
      <rect x="204" y="52" width="2" height="2" fill="black"/>
      <rect x="212" y="52" width="2" height="2" fill="black"/>
      
      <rect x="216" y="48" width="2" height="2" fill="black"/>
      <rect x="224" y="48" width="2" height="2" fill="black"/>
      <rect x="220" y="52" width="2" height="2" fill="black"/>
      <rect x="228" y="52" width="2" height="2" fill="black"/>
      
      <!-- Repeat pattern with different density -->
      <rect x="240" y="40" width="2" height="2" fill="black"/>
      <rect x="248" y="40" width="2" height="2" fill="black"/>
      <rect x="252" y="40" width="2" height="2" fill="black"/>
      <rect x="244" y="44" width="2" height="2" fill="black"/>
      <rect x="256" y="44" width="2" height="2" fill="black"/>
      
      <rect x="240" y="48" width="2" height="2" fill="black"/>
      <rect x="244" y="48" width="2" height="2" fill="black"/>
      <rect x="248" y="48" width="2" height="2" fill="black"/>
      <rect x="252" y="48" width="2" height="2" fill="black"/>
      <rect x="256" y="48" width="2" height="2" fill="black"/>
      
      <rect x="242" y="52" width="2" height="2" fill="black"/>
      <rect x="246" y="52" width="2" height="2" fill="black"/>
      <rect x="250" y="52" width="2" height="2" fill="black"/>
      <rect x="254" y="52" width="2" height="2" fill="black"/>
    </g>
    
    <!-- Organic stone texture detail - like reference image -->
    <g>
      <!-- Detailed stone grain patterns -->
      <rect x="200" y="50" width="1" height="1" fill="black"/>
      <rect x="202" y="50" width="1" height="1" fill="black"/>
      <rect x="204" y="51" width="1" height="1" fill="black"/>
      <rect x="206" y="51" width="1" height="1" fill="black"/>
      <rect x="208" y="50" width="1" height="1" fill="black"/>
      <rect x="210" y="52" width="1" height="1" fill="black"/>
      <rect x="212" y="50" width="1" height="1" fill="black"/>
      <rect x="214" y="51" width="1" height="1" fill="black"/>
      <rect x="216" y="51" width="1" height="1" fill="black"/>
      <rect x="218" y="50" width="1" height="1" fill="black"/>
      <rect x="220" y="52" width="1" height="1" fill="black"/>
      <rect x="222" y="50" width="1" height="1" fill="black"/>
      <rect x="224" y="51" width="1" height="1" fill="black"/>
      <rect x="226" y="51" width="1" height="1" fill="black"/>
      <rect x="228" y="50" width="1" height="1" fill="black"/>
      <rect x="230" y="52" width="1" height="1" fill="black"/>
      <rect x="232" y="50" width="1" height="1" fill="black"/>
      <rect x="234" y="51" width="1" height="1" fill="black"/>
      <rect x="236" y="51" width="1" height="1" fill="black"/>
      <rect x="238" y="50" width="1" height="1" fill="black"/>
      
      <!-- Continue pattern vertically -->
      <rect x="200" y="54" width="1" height="1" fill="black"/>
      <rect x="203" y="54" width="1" height="1" fill="black"/>
      <rect x="206" y="55" width="1" height="1" fill="black"/>
      <rect x="209" y="55" width="1" height="1" fill="black"/>
      <rect x="212" y="54" width="1" height="1" fill="black"/>
      <rect x="215" y="56" width="1" height="1" fill="black"/>
      <rect x="218" y="54" width="1" height="1" fill="black"/>
      <rect x="221" y="55" width="1" height="1" fill="black"/>
      <rect x="224" y="55" width="1" height="1" fill="black"/>
      <rect x="227" y="54" width="1" height="1" fill="black"/>
      <rect x="230" y="56" width="1" height="1" fill="black"/>
      <rect x="233" y="54" width="1" height="1" fill="black"/>
      <rect x="236" y="55" width="1" height="1" fill="black"/>
      <rect x="239" y="55" width="1" height="1" fill="black"/>
    </g>
    
    <!-- Extremely fine detail layer - single pixel patterns -->
    <g>
      <!-- Micro-texture like in reference -->
      <rect x="400" y="100" width="1" height="1" fill="black"/>
      <rect x="401" y="102" width="1" height="1" fill="black"/>
      <rect x="403" y="100" width="1" height="1" fill="black"/>
      <rect x="404" y="103" width="1" height="1" fill="black"/>
      <rect x="406" y="101" width="1" height="1" fill="black"/>
      <rect x="407" y="100" width="1" height="1" fill="black"/>
      <rect x="409" y="102" width="1" height="1" fill="black"/>
      <rect x="410" y="103" width="1" height="1" fill="black"/>
      <rect x="412" y="100" width="1" height="1" fill="black"/>
      <rect x="413" y="101" width="1" height="1" fill="black"/>
      <rect x="415" y="102" width="1" height="1" fill="black"/>
      <rect x="416" y="100" width="1" height="1" fill="black"/>
      <rect x="418" y="103" width="1" height="1" fill="black"/>
      <rect x="419" y="101" width="1" height="1" fill="black"/>
      <rect x="421" y="100" width="1" height="1" fill="black"/>
      <rect x="422" y="102" width="1" height="1" fill="black"/>
      <rect x="424" y="103" width="1" height="1" fill="black"/>
      <rect x="425" y="100" width="1" height="1" fill="black"/>
      <rect x="427" y="101" width="1" height="1" fill="black"/>
      <rect x="428" y="102" width="1" height="1" fill="black"/>
    </g>
    
    <!-- Depth variation through dithering density -->
    <!-- Lighter areas (vault peaks) -->
    <g>
      <rect x="800" y="200" width="2" height="2" fill="black"/>
      <rect x="810" y="205" width="2" height="2" fill="black"/>
      <rect x="820" y="200" width="2" height="2" fill="black"/>
      <rect x="830" y="210" width="2" height="2" fill="black"/>
      <rect x="840" y="205" width="2" height="2" fill="black"/>
    </g>
    
    <!-- Shadow areas (very dense) -->
    <g>
      <rect x="1200" y="350" width="2" height="2" fill="black"/>
      <rect x="1202" y="350" width="2" height="2" fill="black"/>
      <rect x="1204" y="350" width="2" height="2" fill="black"/>
      <rect x="1206" y="350" width="2" height="2" fill="black"/>
      <rect x="1208" y="350" width="2" height="2" fill="black"/>
      <rect x="1210" y="350" width="2" height="2" fill="black"/>
      <rect x="1212" y="350" width="2" height="2" fill="black"/>
      <rect x="1214" y="350" width="2" height="2" fill="black"/>
      <rect x="1201" y="352" width="2" height="2" fill="black"/>
      <rect x="1203" y="352" width="2" height="2" fill="black"/>
      <rect x="1205" y="352" width="2" height="2" fill="black"/>
      <rect x="1207" y="352" width="2" height="2" fill="black"/>
      <rect x="1209" y="352" width="2" height="2" fill="black"/>
      <rect x="1211" y="352" width="2" height="2" fill="black"/>
      <rect x="1213" y="352" width="2" height="2" fill="black"/>
      <rect x="1215" y="352" width="2" height="2" fill="black"/>
      <rect x="1200" y="354" width="2" height="2" fill="black"/>
      <rect x="1202" y="354" width="2" height="2" fill="black"/>
      <rect x="1204" y="354" width="2" height="2" fill="black"/>
      <rect x="1206" y="354" width="2" height="2" fill="black"/>
      <rect x="1208" y="354" width="2" height="2" fill="black"/>
      <rect x="1210" y="354" width="2" height="2" fill="black"/>
      <rect x="1212" y="354" width="2" height="2" fill="black"/>
      <rect x="1214" y="354" width="2" height="2" fill="black"/>
    </g>
  </g>
  
  <!-- Bay 1 Right - Mirror with different dithering pattern -->
  <g>
    <path d="M2096,400 Q3048,300 4096,0 L4096,500 Q3048,800 2096,900 Z" fill="white"/>
    
    <!-- Different dithering style - crosshatch pattern -->
    <g>
      <!-- Horizontal lines -->
      <rect x="2200" y="80" width="8" height="1" fill="black"/>
      <rect x="2200" y="84" width="8" height="1" fill="black"/>
      <rect x="2200" y="88" width="8" height="1" fill="black"/>
      <rect x="2200" y="92" width="8" height="1" fill="black"/>
      
      <!-- Vertical lines intersecting -->
      <rect x="2202" y="78" width="1" height="8" fill="black"/>
      <rect x="2206" y="78" width="1" height="8" fill="black"/>
      
      <!-- Create crosshatch effect -->
      <rect x="2210" y="80" width="8" height="1" fill="black"/>
      <rect x="2210" y="84" width="8" height="1" fill="black"/>
      <rect x="2212" y="78" width="1" height="8" fill="black"/>
      <rect x="2216" y="78" width="1" height="8" fill="black"/>
    </g>
  </g>
  
  <!-- ULTRA DETAILED KEYSTONES -->
  <!-- Central keystone with intricate detail -->
  <g>
    <rect x="1960" y="360" width="176" height="128" fill="white"/>
    
    <!-- Ornate keystone border -->
    <rect x="1970" y="370" width="156" height="8" fill="black"/>
    <rect x="1970" y="470" width="156" height="8" fill="black"/>
    <rect x="1970" y="370" width="8" height="108" fill="black"/>
    <rect x="2118" y="370" width="8" height="108" fill="black"/>
    
    <!-- Internal decorative pattern -->
    <rect x="1990" y="390" width="116" height="68" fill="black"/>
    <rect x="2000" y="400" width="96" height="48" fill="white"/>
    
    <!-- Ultra fine keystone detail -->
    <rect x="2010" y="410" width="2" height="2" fill="black"/>
    <rect x="2014" y="410" width="2" height="2" fill="black"/>
    <rect x="2018" y="410" width="2" height="2" fill="black"/>
    <rect x="2022" y="410" width="2" height="2" fill="black"/>
    <rect x="2026" y="410" width="2" height="2" fill="black"/>
    <rect x="2030" y="410" width="2" height="2" fill="black"/>
    <rect x="2034" y="410" width="2" height="2" fill="black"/>
    <rect x="2038" y="410" width="2" height="2" fill="black"/>
    <rect x="2042" y="410" width="2" height="2" fill="black"/>
    <rect x="2046" y="410" width="2" height="2" fill="black"/>
    <rect x="2050" y="410" width="2" height="2" fill="black"/>
    <rect x="2054" y="410" width="2" height="2" fill="black"/>
    <rect x="2058" y="410" width="2" height="2" fill="black"/>
    <rect x="2062" y="410" width="2" height="2" fill="black"/>
    <rect x="2066" y="410" width="2" height="2" fill="black"/>
    <rect x="2070" y="410" width="2" height="2" fill="black"/>
    <rect x="2074" y="410" width="2" height="2" fill="black"/>
    <rect x="2078" y="410" width="2" height="2" fill="black"/>
    <rect x="2082" y="410" width="2" height="2" fill="black"/>
    <rect x="2086" y="410" width="2" height="2" fill="black"/>
    
    <!-- Second row offset -->
    <rect x="2012" y="414" width="2" height="2" fill="black"/>
    <rect x="2016" y="414" width="2" height="2" fill="black"/>
    <rect x="2020" y="414" width="2" height="2" fill="black"/>
    <rect x="2024" y="414" width="2" height="2" fill="black"/>
    <rect x="2028" y="414" width="2" height="2" fill="black"/>
    <rect x="2032" y="414" width="2" height="2" fill="black"/>
    <rect x="2036" y="414" width="2" height="2" fill="black"/>
    <rect x="2040" y="414" width="2" height="2" fill="black"/>
    <rect x="2044" y="414" width="2" height="2" fill="black"/>
    <rect x="2048" y="414" width="2" height="2" fill="black"/>
    <rect x="2052" y="414" width="2" height="2" fill="black"/>
    <rect x="2056" y="414" width="2" height="2" fill="black"/>
    <rect x="2060" y="414" width="2" height="2" fill="black"/>
    <rect x="2064" y="414" width="2" height="2" fill="black"/>
    <rect x="2068" y="414" width="2" height="2" fill="black"/>
    <rect x="2072" y="414" width="2" height="2" fill="black"/>
    <rect x="2076" y="414" width="2" height="2" fill="black"/>
    <rect x="2080" y="414" width="2" height="2" fill="black"/>
    <rect x="2084" y="414" width="2" height="2" fill="black"/>
  </g>
  
  <!-- DECORATIVE BOSSES WITH INTENSE DETAIL -->
  <!-- Boss 1 -->
  <g>
    <circle cx="2048" cy="200" r="40" fill="white"/>
    <circle cx="2048" cy="200" r="32" fill="black"/>
    <circle cx="2048" cy="200" r="24" fill="white"/>
    <circle cx="2048" cy="200" r="16" fill="black"/>
    <circle cx="2048" cy="200" r="8" fill="white"/>
    
    <!-- Radiating detail pattern -->
    <rect x="2046" y="170" width="4" height="8" fill="black"/>
    <rect x="2046" y="220" width="4" height="8" fill="black"/>
    <rect x="2020" y="198" width="8" height="4" fill="black"/>
    <rect x="2068" y="198" width="8" height="4" fill="black"/>
    
    <!-- Diagonal details -->
    <rect x="2032" y="184" width="4" height="4" fill="black"/>
    <rect x="2060" y="184" width="4" height="4" fill="black"/>
    <rect x="2032" y="212" width="4" height="4" fill="black"/>
    <rect x="2060" y="212" width="4" height="4" fill="black"/>
  </g>
  
  <!-- WEATHERING AND AGING EFFECTS -->
  <!-- Major crack with detailed edge -->
  <g>
    <path d="M1000,600 Q1020,620 1040,600 Q1060,580 1080,600 Q1100,620 1120,600" stroke="black" stroke-width="6" fill="none"/>
    
    <!-- Crack edge detail -->
    <rect x="998" y="595" width="1" height="1" fill="black"/>
    <rect x="1002" y="605" width="1" height="1" fill="black"/>
    <rect x="1018" y="615" width="1" height="1" fill="black"/>
    <rect x="1022" y="625" width="1" height="1" fill="black"/>
    <rect x="1038" y="595" width="1" height="1" fill="black"/>
    <rect x="1042" y="605" width="1" height="1" fill="black"/>
    <rect x="1058" y="575" width="1" height="1" fill="black"/>
    <rect x="1062" y="585" width="1" height="1" fill="black"/>
    <rect x="1078" y="615" width="1" height="1" fill="black"/>
    <rect x="1082" y="625" width="1" height="1" fill="black"/>
    <rect x="1098" y="595" width="1" height="1" fill="black"/>
    <rect x="1102" y="605" width="1" height="1" fill="black"/>
    <rect x="1118" y="595" width="1" height="1" fill="black"/>
    <rect x="1122" y="605" width="1" height="1" fill="black"/>
  </g>
  
  <!-- Water staining with organic dithering -->
  <g>
    <ellipse cx="600" cy="1200" rx="80" ry="120" fill="white"/>
    
    <!-- Organic staining pattern -->
    <rect x="570" y="1160" width="1" height="1" fill="black"/>
    <rect x="572" y="1162" width="1" height="1" fill="black"/>
    <rect x="574" y="1160" width="1" height="1" fill="black"/>
    <rect x="576" y="1164" width="1" height="1" fill="black"/>
    <rect x="578" y="1162" width="1" height="1" fill="black"/>
    <rect x="580" y="1160" width="1" height="1" fill="black"/>
    <rect x="582" y="1166" width="1" height="1" fill="black"/>
    <rect x="584" y="1164" width="1" height="1" fill="black"/>
    <rect x="586" y="1160" width="1" height="1" fill="black"/>
    <rect x="588" y="1162" width="1" height="1" fill="black"/>
    
    <!-- Continue organic pattern in flowing direction -->
    <rect x="575" y="1180" width="1" height="1" fill="black"/>
    <rect x="578" y="1182" width="1" height="1" fill="black"/>
    <rect x="580" y="1185" width="1" height="1" fill="black"/>
    <rect x="583" y="1187" width="1" height="1" fill="black"/>
    <rect x="585" y="1190" width="1" height="1" fill="black"/>
    <rect x="588" y="1192" width="1" height="1" fill="black"/>
    <rect x="590" y="1195" width="1" height="1" fill="black"/>
    <rect x="593" y="1197" width="1" height="1" fill="black"/>
    <rect x="595" y="1200" width="1" height="1" fill="black"/>
    <rect x="598" y="1202" width="1" height="1" fill="black"/>
    <rect x="600" y="1205" width="1" height="1" fill="black"/>
    <rect x="603" y="1207" width="1" height="1" fill="black"/>
    <rect x="605" y="1210" width="1" height="1" fill="black"/>
    <rect x="608" y="1212" width="1" height="1" fill="black"/>
    <rect x="610" y="1215" width="1" height="1" fill="black"/>
    <rect x="613" y="1217" width="1" height="1" fill="black"/>
    <rect x="615" y="1220" width="1" height="1" fill="black"/>
    <rect x="618" y="1222" width="1" height="1" fill="black"/>
    <rect x="620" y="1225" width="1" height="1" fill="black"/>
    <rect x="623" y="1227" width="1" height="1" fill="black"/>
  </g>
</svg>