<svg width="512" height="512" xmlns="http://www.w3.org/2000/svg">
  <!-- ORGANIC 1-BIT DITHERING WITH DARK VEINS -->
  <rect width="512" height="512" fill="white"/>
  
  <!-- DARK VEINS RUNNING THROUGH THE TEXTURE -->
  <!-- Irregular vein patterns like natural stone or wood grain -->
  <g>
    <!-- Major vein 1 - Diagonal -->
    <path d="M 0,120 Q 80,100 160,130 T 320,110 T 512,140" stroke="black" stroke-width="3" fill="none"/>
    <path d="M 0,122 Q 82,102 162,132 T 322,112 T 512,142" stroke="black" stroke-width="1" fill="none"/>
    <path d="M 0,118 Q 78,98 158,128 T 318,108 T 512,138" stroke="black" stroke-width="1" fill="none"/>
    
    <!-- Major vein 2 - More curved -->
    <path d="M 0,280 Q 120,260 240,290 T 512,270" stroke="black" stroke-width="4" fill="none"/>
    <path d="M 0,282 Q 122,262 242,292 T 512,272" stroke="black" stroke-width="1" fill="none"/>
    <path d="M 0,278 Q 118,258 238,288 T 512,268" stroke="black" stroke-width="1" fill="none"/>
    
    <!-- Major vein 3 - Crossing pattern -->
    <path d="M 0,50 Q 100,70 200,45 T 400,65 T 512,40" stroke="black" stroke-width="2" fill="none"/>
    <path d="M 0,52 Q 102,72 202,47 T 402,67 T 512,42" stroke="black" stroke-width="1" fill="none"/>
    
    <!-- Major vein 4 - Lower area -->
    <path d="M 0,380 Q 150,360 300,390 T 512,370" stroke="black" stroke-width="3" fill="none"/>
    <path d="M 0,382 Q 152,362 302,392 T 512,372" stroke="black" stroke-width="1" fill="none"/>
    
    <!-- Secondary veins - Branching off main ones -->
    <path d="M 80,100 Q 90,150 100,200" stroke="black" stroke-width="2" fill="none"/>
    <path d="M 160,130 Q 180,180 190,230" stroke="black" stroke-width="1" fill="none"/>
    <path d="M 240,290 Q 250,250 270,210" stroke="black" stroke-width="2" fill="none"/>
    <path d="M 320,110 Q 340,160 360,210" stroke="black" stroke-width="1" fill="none"/>
    
    <!-- Smaller branching veins -->
    <path d="M 120,260 Q 140,240 160,220" stroke="black" stroke-width="1" fill="none"/>
    <path d="M 300,390 Q 280,350 260,310" stroke="black" stroke-width="1" fill="none"/>
    <path d="M 200,45 Q 220,90 240,135" stroke="black" stroke-width="1" fill="none"/>
    <path d="M 400,65 Q 380,110 360,155" stroke="black" stroke-width="1" fill="none"/>
    
    <!-- Vertical veins -->
    <path d="M 100,0 Q 110,100 120,200 T 130,400 T 140,512" stroke="black" stroke-width="2" fill="none"/>
    <path d="M 350,0 Q 360,120 370,240 T 380,480 T 390,512" stroke="black" stroke-width="3" fill="none"/>
    
    <!-- Micro veins - thin details -->
    <path d="M 50,80 Q 70,100 90,120" stroke="black" stroke-width="1" fill="none"/>
    <path d="M 200,180 Q 220,200 240,220" stroke="black" stroke-width="1" fill="none"/>
    <path d="M 300,300 Q 320,320 340,340" stroke="black" stroke-width="1" fill="none"/>
    <path d="M 450,150 Q 470,170 490,190" stroke="black" stroke-width="1" fill="none"/>
  </g>
  
  <!-- ORGANIC DITHERING PATTERN WITH VARIATIONS -->
  <pattern id="organicDitherWithVeins" x="0" y="0" width="64" height="64" patternUnits="userSpaceOnUse">
    <rect width="64" height="64" fill="white"/>
    
    <!-- Mini vein in pattern -->
    <path d="M 10,0 Q 20,20 30,40 T 50,64" stroke="black" stroke-width="1" fill="none"/>
    <path d="M 0,30 Q 20,35 40,30 T 64,35" stroke="black" stroke-width="1" fill="none"/>
    
    <!-- Irregular cluster 1 -->
    <rect x="5" y="8" width="1" height="1" fill="black"/>
    <rect x="7" y="8" width="1" height="1" fill="black"/>
    <rect x="4" y="9" width="1" height="1" fill="black"/>
    <rect x="6" y="9" width="1" height="1" fill="black"/>
    <rect x="8" y="9" width="1" height="1" fill="black"/>
    <rect x="3" y="10" width="1" height="1" fill="black"/>
    <rect x="5" y="10" width="1" height="1" fill="black"/>
    <rect x="7" y="11" width="1" height="1" fill="black"/>
    
    <!-- Denser clusters near veins -->
    <rect x="9" y="18" width="1" height="1" fill="black"/>
    <rect x="11" y="19" width="1" height="1" fill="black"/>
    <rect x="8" y="20" width="1" height="1" fill="black"/>
    <rect x="10" y="20" width="1" height="1" fill="black"/>
    <rect x="12" y="20" width="1" height="1" fill="black"/>
    <rect x="9" y="21" width="1" height="1" fill="black"/>
    <rect x="11" y="21" width="1" height="1" fill="black"/>
    <rect x="10" y="22" width="1" height="1" fill="black"/>
    
    <!-- Sparse dots -->
    <rect x="25" y="12" width="1" height="1" fill="black"/>
    <rect x="29" y="8" width="1" height="1" fill="black"/>
    <rect x="33" y="15" width="1" height="1" fill="black"/>
    <rect x="38" y="11" width="1" height="1" fill="black"/>
    
    <!-- Medium cluster -->
    <rect x="45" y="6" width="1" height="1" fill="black"/>
    <rect x="47" y="7" width="1" height="1" fill="black"/>
    <rect x="44" y="8" width="1" height="1" fill="black"/>
    <rect x="46" y="8" width="1" height="1" fill="black"/>
    <rect x="48" y="9" width="1" height="1" fill="black"/>
    <rect x="43" y="10" width="1" height="1" fill="black"/>
    <rect x="45" y="11" width="1" height="1" fill="black"/>
    
    <!-- Clusters around horizontal vein area -->
    <rect x="18" y="33" width="1" height="1" fill="black"/>
    <rect x="20" y="34" width="1" height="1" fill="black"/>
    <rect x="17" y="35" width="1" height="1" fill="black"/>
    <rect x="19" y="35" width="1" height="1" fill="black"/>
    <rect x="21" y="35" width="1" height="1" fill="black"/>
    <rect x="18" y="36" width="1" height="1" fill="black"/>
    <rect x="20" y="36" width="1" height="1" fill="black"/>
    
    <rect x="38" y="31" width="1" height="1" fill="black"/>
    <rect x="40" y="32" width="1" height="1" fill="black"/>
    <rect x="37" y="33" width="1" height="1" fill="black"/>
    <rect x="39" y="33" width="1" height="1" fill="black"/>
    <rect x="41" y="34" width="1" height="1" fill="black"/>
    
    <!-- Dense cluster in corner -->
    <rect x="8" y="55" width="1" height="1" fill="black"/>
    <rect x="10" y="55" width="1" height="1" fill="black"/>
    <rect x="12" y="56" width="1" height="1" fill="black"/>
    <rect x="7" y="56" width="1" height="1" fill="black"/>
    <rect x="9" y="56" width="1" height="1" fill="black"/>
    <rect x="11" y="57" width="1" height="1" fill="black"/>
    <rect x="13" y="57" width="1" height="1" fill="black"/>
    <rect x="6" y="57" width="1" height="1" fill="black"/>
    <rect x="8" y="58" width="1" height="1" fill="black"/>
    <rect x="10" y="58" width="1" height="1" fill="black"/>
    <rect x="12" y="59" width="1" height="1" fill="black"/>
    <rect x="7" y="60" width="1" height="1" fill="black"/>
    <rect x="9" y="60" width="1" height="1" fill="black"/>
    
    <!-- Final scattered elements -->
    <rect x="55" y="52" width="1" height="1" fill="black"/>
    <rect x="58" y="48" width="1" height="1" fill="black"/>
    <rect x="61" y="55" width="1" height="1" fill="black"/>
    <rect x="59" y="42" width="1" height="1" fill="black"/>
    <rect x="56" y="45" width="1" height="1" fill="black"/>
    <rect x="52" y="48" width="1" height="1" fill="black"/>
    
    <!-- More variation around veins -->
    <rect x="28" y="25" width="1" height="1" fill="black"/>
    <rect x="30" y="26" width="1" height="1" fill="black"/>
    <rect x="27" y="27" width="1" height="1" fill="black"/>
    <rect x="29" y="28" width="1" height="1" fill="black"/>
    <rect x="31" y="29" width="1" height="1" fill="black"/>
  </pattern>
  
  <!-- Apply organic dithering pattern to entire surface -->
  <rect x="0" y="0" width="512" height="512" fill="url(#organicDitherWithVeins)"/>
  
</svg>