<svg width="512" height="512" xmlns="http://www.w3.org/2000/svg">
  <!-- High-detail Gothic brick wall with 1-bit dithering -->
  <rect width="512" height="512" fill="black"/>
  
  <!-- Brick pattern with staggered rows - higher resolution -->
  <!-- Row 1 -->
  <rect x="0" y="0" width="120" height="50" fill="white"/>
  <rect x="130" y="0" width="120" height="50" fill="white"/>
  <rect x="260" y="0" width="120" height="50" fill="white"/>
  <rect x="390" y="0" width="122" height="50" fill="white"/>
  
  <!-- Row 2 (offset) -->
  <rect x="0" y="60" width="60" height="50" fill="white"/>
  <rect x="70" y="60" width="120" height="50" fill="white"/>
  <rect x="200" y="60" width="120" height="50" fill="white"/>
  <rect x="330" y="60" width="120" height="50" fill="white"/>
  <rect x="460" y="60" width="52" height="50" fill="white"/>
  
  <!-- Row 3 -->
  <rect x="0" y="120" width="120" height="50" fill="white"/>
  <rect x="130" y="120" width="120" height="50" fill="white"/>
  <rect x="260" y="120" width="120" height="50" fill="white"/>
  <rect x="390" y="120" width="122" height="50" fill="white"/>
  
  <!-- Row 4 (offset) -->
  <rect x="0" y="180" width="60" height="50" fill="white"/>
  <rect x="70" y="180" width="120" height="50" fill="white"/>
  <rect x="200" y="180" width="120" height="50" fill="white"/>
  <rect x="330" y="180" width="120" height="50" fill="white"/>
  <rect x="460" y="180" width="52" height="50" fill="white"/>
  
  <!-- Row 5 -->
  <rect x="0" y="240" width="120" height="50" fill="white"/>
  <rect x="130" y="240" width="120" height="50" fill="white"/>
  <rect x="260" y="240" width="120" height="50" fill="white"/>
  <rect x="390" y="240" width="122" height="50" fill="white"/>
  
  <!-- Row 6 (offset) -->
  <rect x="0" y="300" width="60" height="50" fill="white"/>
  <rect x="70" y="300" width="120" height="50" fill="white"/>
  <rect x="200" y="300" width="120" height="50" fill="white"/>
  <rect x="330" y="300" width="120" height="50" fill="white"/>
  <rect x="460" y="300" width="52" height="50" fill="white"/>
  
  <!-- Row 7 -->
  <rect x="0" y="360" width="120" height="50" fill="white"/>
  <rect x="130" y="360" width="120" height="50" fill="white"/>
  <rect x="260" y="360" width="120" height="50" fill="white"/>
  <rect x="390" y="360" width="122" height="50" fill="white"/>
  
  <!-- Row 8 (offset) -->
  <rect x="0" y="420" width="60" height="50" fill="white"/>
  <rect x="70" y="420" width="120" height="50" fill="white"/>
  <rect x="200" y="420" width="120" height="50" fill="white"/>
  <rect x="330" y="420" width="120" height="50" fill="white"/>
  <rect x="460" y="420" width="52" height="50" fill="white"/>
  
  <!-- Row 9 -->
  <rect x="0" y="480" width="120" height="32" fill="white"/>
  <rect x="130" y="480" width="120" height="32" fill="white"/>
  <rect x="260" y="480" width="120" height="32" fill="white"/>
  <rect x="390" y="480" width="122" height="32" fill="white"/>
  
  <!-- Brick weathering with proper 1-bit dithering -->
  <!-- Weathered brick 1 - Heavy dithering (dark/aged) -->
  <g>
    <rect x="40" y="30" width="50" height="20" fill="white"/>
    <!-- Dense dithering pattern -->
    <rect x="42" y="32" width="2" height="2" fill="black"/>
    <rect x="46" y="32" width="2" height="2" fill="black"/>
    <rect x="50" y="32" width="2" height="2" fill="black"/>
    <rect x="54" y="32" width="2" height="2" fill="black"/>
    <rect x="58" y="32" width="2" height="2" fill="black"/>
    <rect x="62" y="32" width="2" height="2" fill="black"/>
    <rect x="66" y="32" width="2" height="2" fill="black"/>
    <rect x="70" y="32" width="2" height="2" fill="black"/>
    <rect x="74" y="32" width="2" height="2" fill="black"/>
    <rect x="78" y="32" width="2" height="2" fill="black"/>
    <rect x="82" y="32" width="2" height="2" fill="black"/>
    <rect x="86" y="32" width="2" height="2" fill="black"/>
    <rect x="44" y="34" width="2" height="2" fill="black"/>
    <rect x="48" y="34" width="2" height="2" fill="black"/>
    <rect x="52" y="34" width="2" height="2" fill="black"/>
    <rect x="56" y="34" width="2" height="2" fill="black"/>
    <rect x="60" y="34" width="2" height="2" fill="black"/>
    <rect x="64" y="34" width="2" height="2" fill="black"/>
    <rect x="68" y="34" width="2" height="2" fill="black"/>
    <rect x="72" y="34" width="2" height="2" fill="black"/>
    <rect x="76" y="34" width="2" height="2" fill="black"/>
    <rect x="80" y="34" width="2" height="2" fill="black"/>
    <rect x="84" y="34" width="2" height="2" fill="black"/>
    <rect x="42" y="36" width="2" height="2" fill="black"/>
    <rect x="46" y="36" width="2" height="2" fill="black"/>
    <rect x="50" y="36" width="2" height="2" fill="black"/>
    <rect x="54" y="36" width="2" height="2" fill="black"/>
    <rect x="58" y="36" width="2" height="2" fill="black"/>
    <rect x="62" y="36" width="2" height="2" fill="black"/>
    <rect x="66" y="36" width="2" height="2" fill="black"/>
    <rect x="70" y="36" width="2" height="2" fill="black"/>
    <rect x="74" y="36" width="2" height="2" fill="black"/>
    <rect x="78" y="36" width="2" height="2" fill="black"/>
    <rect x="82" y="36" width="2" height="2" fill="black"/>
    <rect x="86" y="36" width="2" height="2" fill="black"/>
    <rect x="44" y="38" width="2" height="2" fill="black"/>
    <rect x="48" y="38" width="2" height="2" fill="black"/>
    <rect x="52" y="38" width="2" height="2" fill="black"/>
    <rect x="56" y="38" width="2" height="2" fill="black"/>
    <rect x="60" y="38" width="2" height="2" fill="black"/>
    <rect x="64" y="38" width="2" height="2" fill="black"/>
    <rect x="68" y="38" width="2" height="2" fill="black"/>
    <rect x="72" y="38" width="2" height="2" fill="black"/>
    <rect x="76" y="38" width="2" height="2" fill="black"/>
    <rect x="80" y="38" width="2" height="2" fill="black"/>
    <rect x="84" y="38" width="2" height="2" fill="black"/>
  </g>
  
  <!-- Weathered brick 2 - Medium dithering -->
  <g>
    <rect x="160" y="90" width="50" height="20" fill="white"/>
    <!-- Checkerboard dithering -->
    <rect x="162" y="92" width="2" height="2" fill="black"/>
    <rect x="166" y="94" width="2" height="2" fill="black"/>
    <rect x="170" y="92" width="2" height="2" fill="black"/>
    <rect x="174" y="94" width="2" height="2" fill="black"/>
    <rect x="178" y="92" width="2" height="2" fill="black"/>
    <rect x="182" y="94" width="2" height="2" fill="black"/>
    <rect x="186" y="92" width="2" height="2" fill="black"/>
    <rect x="190" y="94" width="2" height="2" fill="black"/>
    <rect x="194" y="92" width="2" height="2" fill="black"/>
    <rect x="198" y="94" width="2" height="2" fill="black"/>
    <rect x="202" y="92" width="2" height="2" fill="black"/>
    <rect x="206" y="94" width="2" height="2" fill="black"/>
    <rect x="164" y="96" width="2" height="2" fill="black"/>
    <rect x="168" y="98" width="2" height="2" fill="black"/>
    <rect x="172" y="96" width="2" height="2" fill="black"/>
    <rect x="176" y="98" width="2" height="2" fill="black"/>
    <rect x="180" y="96" width="2" height="2" fill="black"/>
    <rect x="184" y="98" width="2" height="2" fill="black"/>
    <rect x="188" y="96" width="2" height="2" fill="black"/>
    <rect x="192" y="98" width="2" height="2" fill="black"/>
    <rect x="196" y="96" width="2" height="2" fill="black"/>
    <rect x="200" y="98" width="2" height="2" fill="black"/>
    <rect x="204" y="96" width="2" height="2" fill="black"/>
    <rect x="208" y="98" width="2" height="2" fill="black"/>
    <rect x="162" y="100" width="2" height="2" fill="black"/>
    <rect x="166" y="102" width="2" height="2" fill="black"/>
    <rect x="170" y="100" width="2" height="2" fill="black"/>
    <rect x="174" y="102" width="2" height="2" fill="black"/>
    <rect x="178" y="100" width="2" height="2" fill="black"/>
    <rect x="182" y="102" width="2" height="2" fill="black"/>
    <rect x="186" y="100" width="2" height="2" fill="black"/>
    <rect x="190" y="102" width="2" height="2" fill="black"/>
    <rect x="194" y="100" width="2" height="2" fill="black"/>
    <rect x="198" y="102" width="2" height="2" fill="black"/>
    <rect x="202" y="100" width="2" height="2" fill="black"/>
    <rect x="206" y="102" width="2" height="2" fill="black"/>
    <rect x="164" y="104" width="2" height="2" fill="black"/>
    <rect x="168" y="106" width="2" height="2" fill="black"/>
    <rect x="172" y="104" width="2" height="2" fill="black"/>
    <rect x="176" y="106" width="2" height="2" fill="black"/>
    <rect x="180" y="104" width="2" height="2" fill="black"/>
    <rect x="184" y="106" width="2" height="2" fill="black"/>
    <rect x="188" y="104" width="2" height="2" fill="black"/>
    <rect x="192" y="106" width="2" height="2" fill="black"/>
    <rect x="196" y="104" width="2" height="2" fill="black"/>
    <rect x="200" y="106" width="2" height="2" fill="black"/>
    <rect x="204" y="104" width="2" height="2" fill="black"/>
    <rect x="208" y="106" width="2" height="2" fill="black"/>
  </g>
  
  <!-- Weathered brick 3 - Light dithering -->
  <g>
    <rect x="300" y="150" width="50" height="20" fill="white"/>
    <!-- Sparse dot pattern -->
    <rect x="308" y="154" width="2" height="2" fill="black"/>
    <rect x="318" y="158" width="2" height="2" fill="black"/>
    <rect x="328" y="154" width="2" height="2" fill="black"/>
    <rect x="338" y="162" width="2" height="2" fill="black"/>
    <rect x="314" y="162" width="2" height="2" fill="black"/>
    <rect x="324" y="166" width="2" height="2" fill="black"/>
    <rect x="334" y="158" width="2" height="2" fill="black"/>
    <rect x="344" y="154" width="2" height="2" fill="black"/>
  </g>
  
  <!-- Vertical cracks with detailed 1-bit patterns -->
  <g>
    <!-- Major crack -->
    <rect x="190" y="0" width="4" height="60" fill="black"/>
    <!-- Crack expansion with dithering -->
    <rect x="188" y="10" width="2" height="2" fill="black"/>
    <rect x="194" y="15" width="2" height="2" fill="black"/>
    <rect x="186" y="25" width="2" height="2" fill="black"/>
    <rect x="196" y="30" width="2" height="2" fill="black"/>
    <rect x="188" y="40" width="2" height="2" fill="black"/>
    <rect x="194" y="45" width="2" height="2" fill="black"/>
    <rect x="186" y="55" width="2" height="2" fill="black"/>
  </g>
  
  <g>
    <!-- Secondary crack -->
    <rect x="320" y="120" width="4" height="120" fill="black"/>
    <!-- Crack branching -->
    <rect x="318" y="140" width="2" height="2" fill="black"/>
    <rect x="324" y="145" width="2" height="2" fill="black"/>
    <rect x="316" y="160" width="2" height="2" fill="black"/>
    <rect x="326" y="165" width="2" height="2" fill="black"/>
    <rect x="318" y="185" width="2" height="2" fill="black"/>
    <rect x="324" y="200" width="2" height="2" fill="black"/>
    <rect x="316" y="220" width="2" height="2" fill="black"/>
    <rect x="326" y="225" width="2" height="2" fill="black"/>
  </g>
  
  <!-- Mortar deterioration with micro-dithering -->
  <g>
    <!-- Top mortar line detail -->
    <rect x="0" y="50" width="512" height="10" fill="black"/>
    <!-- Deterioration pattern -->
    <rect x="20" y="52" width="2" height="2" fill="white"/>
    <rect x="40" y="54" width="2" height="2" fill="white"/>
    <rect x="60" y="52" width="2" height="2" fill="white"/>
    <rect x="80" y="56" width="2" height="2" fill="white"/>
    <rect x="100" y="52" width="2" height="2" fill="white"/>
    <rect x="120" y="54" width="2" height="2" fill="white"/>
    <rect x="140" y="52" width="2" height="2" fill="white"/>
    <rect x="160" y="56" width="2" height="2" fill="white"/>
    <rect x="180" y="52" width="2" height="2" fill="white"/>
    <rect x="200" y="54" width="2" height="2" fill="white"/>
    <rect x="220" y="52" width="2" height="2" fill="white"/>
    <rect x="240" y="56" width="2" height="2" fill="white"/>
    <rect x="260" y="52" width="2" height="2" fill="white"/>
    <rect x="280" y="54" width="2" height="2" fill="white"/>
    <rect x="300" y="52" width="2" height="2" fill="white"/>
    <rect x="320" y="56" width="2" height="2" fill="white"/>
    <rect x="340" y="52" width="2" height="2" fill="white"/>
    <rect x="360" y="54" width="2" height="2" fill="white"/>
    <rect x="380" y="52" width="2" height="2" fill="white"/>
    <rect x="400" y="56" width="2" height="2" fill="white"/>
    <rect x="420" y="52" width="2" height="2" fill="white"/>
    <rect x="440" y="54" width="2" height="2" fill="white"/>
    <rect x="460" y="52" width="2" height="2" fill="white"/>
    <rect x="480" y="56" width="2" height="2" fill="white"/>
    <rect x="500" y="52" width="2" height="2" fill="white"/>
  </g>
</svg>